<svg xmlns="http://www.w3.org/2000/svg" viewBox="0 0 150 150"><defs><style>.cls-1{fill:#2d2d37;}.cls-2{fill:#fff;}</style></defs><title>Asset 3</title><g id="Layer_2" data-name="Layer 2"><g id="Layer_1-2" data-name="Layer 1"><circle class="cls-1" cx="75" cy="75" r="75"/><path class="cls-2" d="M75,27.5a47.51,47.51,0,0,0-15.92,92.26l.5.17a2.8,2.8,0,0,0,3.66-2.66c0-.08,0-.15,0-.22h0v-8.26c-3,.62-7.6,1.2-10.09,0-3.24-1.56-4.85-3.55-6.43-7.48-1.92-4.78-6.38-6.08-6.55-6.93s4.7-2.1,7.23.79,5.08,8.69,10.5,8.13a27.06,27.06,0,0,0,5.47-1,10.06,10.06,0,0,1,2.38-5.82C53,94.33,44.51,87.47,44.51,74c0-6.11,1.75-10.86,4.86-14.42-.51-2.92-1.4-9.71.94-12.11,0,0,3.31-2,12.79,4.64a53.82,53.82,0,0,1,11.67-1.24h.46A53.83,53.83,0,0,1,86.9,52.12c9.48-6.68,12.79-4.64,12.79-4.64,2.34,2.4,1.46,9.19.94,12.11,3.1,3.56,4.86,8.31,4.86,14.42,0,13.45-8.48,20.31-21.23,22.42,2.44,2.55,2.51,6.68,2.51,8.37v12.46a2.79,2.79,0,0,0,2.79,2.79,2.74,2.74,0,0,0,.66-.08l.29-.08A47.51,47.51,0,0,0,75,27.5Z"/></g></g></svg>