<svg xmlns="http://www.w3.org/2000/svg" viewBox="0 0 150 150"><defs><style>.cls-1{fill:#1ab2e8;}.cls-2{fill:#fff;}</style></defs><title>Asset 2</title><g id="Layer_2" data-name="Layer 2"><g id="Layer_1-2" data-name="Layer 1"><circle class="cls-1" cx="75" cy="75" r="75"/><path id="twitter-4-icon" class="cls-2" d="M105,59.45c1,21.64-15.17,45.77-43.74,45.77a43.52,43.52,0,0,1-23.59-6.92,30.94,30.94,0,0,0,22.78-6.37A15.4,15.4,0,0,1,46.1,81.25,15.37,15.37,0,0,0,53,81,15.4,15.4,0,0,1,40.71,65.71a15.31,15.31,0,0,0,7,1.92,15.41,15.41,0,0,1-4.76-20.54A43.68,43.68,0,0,0,74.63,63.17a15.4,15.4,0,0,1,26.22-14,30.88,30.88,0,0,0,9.77-3.73,15.46,15.46,0,0,1-6.77,8.51,30.76,30.76,0,0,0,8.83-2.42A31.17,31.17,0,0,1,105,59.45Z"/></g></g></svg>